<svg width="157" height="57" viewBox="0 0 157 57" fill="none" xmlns="http://www.w3.org/2000/svg">
<path d="M20.286 17.8994C20.0354 20.554 19.0556 22.6276 17.3466 24.1201C15.6376 25.6012 13.3647 26.3418 10.5277 26.3418C8.54532 26.3418 6.79646 25.8747 5.28116 24.9404C3.77725 23.9948 2.61514 22.6561 1.79483 20.9243C0.974518 19.1925 0.547272 17.1816 0.513092 14.8916V12.5674C0.513092 10.2204 0.928945 8.15251 1.76065 6.36377C2.59236 4.57503 3.78295 3.19645 5.33243 2.22803C6.8933 1.2596 8.69343 0.775391 10.7328 0.775391C13.4786 0.775391 15.6889 1.52165 17.3637 3.01416C19.0385 4.50667 20.0126 6.61442 20.286 9.3374H15.9794C15.7743 7.54867 15.2502 6.26123 14.4071 5.4751C13.5754 4.67757 12.3507 4.27881 10.7328 4.27881C8.85294 4.27881 7.406 4.9681 6.392 6.34668C5.38939 7.71387 4.8767 9.72477 4.85391 12.3794V14.584C4.85391 17.2728 5.33243 19.3236 6.28946 20.7363C7.25788 22.1491 8.67064 22.8555 10.5277 22.8555C12.2253 22.8555 13.5014 22.4738 14.3559 21.7104C15.2104 20.9471 15.7515 19.6768 15.9794 17.8994H20.286ZM44.7238 14.208C44.7238 16.6462 44.3023 18.7881 43.4592 20.6338C42.6161 22.4681 41.4084 23.8809 39.8361 24.8721C38.2753 25.8519 36.4751 26.3418 34.4357 26.3418C32.4191 26.3418 30.619 25.8519 29.0354 24.8721C27.4631 23.8809 26.244 22.4738 25.3781 20.6509C24.5236 18.828 24.0907 16.7259 24.0793 14.3447V12.9434C24.0793 10.5166 24.5065 8.37467 25.361 6.51758C26.2269 4.66048 27.4403 3.24202 29.0012 2.26221C30.5734 1.271 32.3736 0.775391 34.4016 0.775391C36.4296 0.775391 38.224 1.2653 39.7849 2.24512C41.3571 3.21354 42.5705 4.61491 43.425 6.44922C44.2795 8.27214 44.7124 10.397 44.7238 12.8237V14.208ZM40.4001 12.9092C40.4001 10.152 39.876 8.03857 38.8278 6.56885C37.7911 5.09912 36.3156 4.36426 34.4016 4.36426C32.5331 4.36426 31.069 5.09912 30.0095 6.56885C28.9613 8.02718 28.4258 10.0951 28.403 12.7725V14.208C28.403 16.9424 28.9328 19.0558 29.9924 20.5483C31.0634 22.0409 32.5445 22.7871 34.4357 22.7871C36.3498 22.7871 37.8195 22.0579 38.8449 20.5996C39.8817 19.1413 40.4001 17.0107 40.4001 14.208V12.9092ZM58.1216 20.5825L64.4448 1.11719H69.1958L60.2407 26H56.0537L47.1328 1.11719H51.8667L58.1216 20.5825ZM77.2786 26H72.972V1.11719H77.2786V26ZM83.2936 26V1.11719H90.6422C92.8411 1.11719 94.7893 1.6071 96.4869 2.58691C98.1959 3.56673 99.5175 4.95671 100.452 6.75684C101.386 8.55697 101.853 10.6191 101.853 12.9434V14.1909C101.853 16.5493 101.38 18.6229 100.435 20.4116C99.5004 22.2004 98.1617 23.5789 96.4186 24.5474C94.6868 25.5158 92.6987 26 90.4542 26H83.2936ZM87.6173 4.60352V22.5479H90.4371C92.7044 22.5479 94.4418 21.8415 95.6495 20.4287C96.8686 19.0046 97.4895 16.9652 97.5123 14.3105V12.9263C97.5123 10.2261 96.9256 8.1639 95.7521 6.73975C94.5786 5.31559 92.8753 4.60352 90.6422 4.60352H87.6173ZM114.516 17.0962H105.544V13.7466H114.516V17.0962ZM129.623 26H125.487V6.02197L119.386 8.10693V4.60352L129.093 1.03174H129.623V26ZM150.745 15.5923C149.355 17.062 147.732 17.7969 145.875 17.7969C143.687 17.7969 141.944 17.0335 140.645 15.5068C139.346 13.9688 138.697 11.9521 138.697 9.45703C138.697 7.81641 139.027 6.32959 139.688 4.99658C140.349 3.66357 141.289 2.62679 142.508 1.88623C143.727 1.14567 145.14 0.775391 146.746 0.775391C149.253 0.775391 151.241 1.70964 152.71 3.57812C154.18 5.44661 154.915 7.94743 154.915 11.0806V12.2427C154.915 16.7316 153.901 20.1553 151.873 22.5137C149.845 24.8721 146.82 26.0684 142.798 26.1025H142.303V22.6675H142.901C145.35 22.6333 147.23 22.0465 148.541 20.9072C149.851 19.7565 150.586 17.9849 150.745 15.5923ZM146.746 14.5498C147.578 14.5498 148.358 14.3105 149.087 13.832C149.817 13.3535 150.381 12.6927 150.779 11.8496V10.2261C150.779 8.39176 150.403 6.91634 149.651 5.7998C148.899 4.68327 147.925 4.125 146.729 4.125C145.533 4.125 144.576 4.62061 143.858 5.61182C143.152 6.59163 142.798 7.8335 142.798 9.3374C142.798 10.8983 143.157 12.1572 143.875 13.1143C144.593 14.0713 145.55 14.5498 146.746 14.5498Z" fill="black"/>
<path d="M87.5233 56.588V40.656C87.5233 39.928 87.4019 39.368 87.1593 38.976C86.9353 38.5653 86.5153 38.3507 85.8993 38.332C85.6379 38.332 85.4419 38.2573 85.3113 38.108C85.1806 37.94 85.1153 37.744 85.1153 37.52C85.1153 37.3333 85.1806 37.1653 85.3113 37.016C85.4606 36.8667 85.6193 36.792 85.7873 36.792H90.8833L99.1712 51.828V36.792H101.635V55.16C101.635 55.4587 101.495 55.7667 101.215 56.084C100.935 56.42 100.599 56.588 100.207 56.588H98.9473L89.9313 40.684V56.588H87.5233ZM104.216 36.792H117.964L118.104 40.572C118.104 40.796 118.02 40.964 117.852 41.076C117.702 41.188 117.525 41.244 117.32 41.244C117.133 41.2627 116.956 41.2253 116.788 41.132C116.62 41.02 116.536 40.852 116.536 40.628C116.536 40.628 116.489 40.4507 116.396 40.096C116.321 39.7413 116.2 39.452 116.032 39.228C115.92 39.0787 115.724 38.9573 115.444 38.864C115.182 38.752 114.753 38.696 114.156 38.696H110.32C109.648 38.696 109.228 38.8453 109.06 39.144C108.892 39.424 108.808 39.816 108.808 40.32V45.332H112.952C113.194 45.332 113.418 45.3227 113.624 45.304C113.848 45.2667 114.053 45.22 114.24 45.164C114.65 45.052 114.949 44.884 115.136 44.66C115.322 44.436 115.416 44.0067 115.416 43.372C115.416 43.2413 115.49 43.1387 115.64 43.064C115.789 42.9707 115.966 42.924 116.172 42.924C116.358 42.924 116.526 42.9613 116.676 43.036C116.844 43.1107 116.928 43.2133 116.928 43.344V49.308C116.928 49.4573 116.844 49.5693 116.676 49.644C116.508 49.7 116.33 49.728 116.144 49.728C115.938 49.728 115.752 49.7 115.584 49.644C115.434 49.5693 115.36 49.4573 115.36 49.308C115.36 49.308 115.332 49.1213 115.276 48.748C115.238 48.3747 115.098 48.048 114.856 47.768C114.706 47.6 114.501 47.4787 114.24 47.404C113.978 47.3107 113.549 47.264 112.952 47.264H108.808V53.228C108.808 53.788 108.91 54.18 109.116 54.404C109.34 54.6093 109.956 54.712 110.964 54.712H114.772C115.22 54.712 115.546 54.684 115.752 54.628C115.976 54.5533 116.19 54.404 116.396 54.18C116.489 54.068 116.573 53.9467 116.648 53.816C116.722 53.6853 116.778 53.5453 116.816 53.396C116.872 53.2467 116.909 53.0973 116.928 52.948C116.965 52.78 117.002 52.6213 117.04 52.472C117.077 52.248 117.18 52.0893 117.348 51.996C117.516 51.9027 117.702 51.8653 117.908 51.884C118.094 51.9027 118.262 51.9773 118.412 52.108C118.561 52.22 118.636 52.3693 118.636 52.556L118.44 56.588H105.98V40.628C105.98 39.8813 105.858 39.3307 105.616 38.976C105.392 38.6213 104.953 38.416 104.3 38.36C104.02 38.36 103.814 38.2667 103.684 38.08C103.572 37.8933 103.516 37.716 103.516 37.548C103.516 37.3613 103.59 37.1933 103.74 37.044C103.889 36.876 104.048 36.792 104.216 36.792ZM119.17 38.36C118.815 38.36 118.572 38.276 118.442 38.108C118.311 37.94 118.236 37.7533 118.218 37.548C118.218 37.3613 118.311 37.1933 118.498 37.044C118.666 36.876 118.834 36.792 119.002 36.792H123.006L126.03 51.772L130.342 36.792H133.366L137.622 51.212L140.506 36.792H141.542C141.952 36.792 142.242 36.8573 142.41 36.988C142.596 37.1 142.708 37.2307 142.746 37.38C142.802 37.5293 142.811 37.66 142.774 37.772C142.755 37.884 142.746 37.94 142.746 37.94L138.882 56.588H136.558L131.742 40.74L127.038 56.588H124.238L120.934 40.768C120.803 40.152 120.616 39.6107 120.374 39.144C120.131 38.6773 119.73 38.416 119.17 38.36ZM154.984 37.1V39.648C154.312 39.3307 153.593 39.032 152.828 38.752C152.063 38.472 151.12 38.332 150 38.332C149.029 38.332 148.245 38.5653 147.648 39.032C147.069 39.48 146.78 40.124 146.78 40.964C146.78 41.6547 146.948 42.2427 147.284 42.728C147.62 43.1947 148.217 43.6987 149.076 44.24C149.673 44.632 150.383 45.024 151.204 45.416C152.025 45.808 152.809 46.256 153.556 46.76C154.303 47.264 154.937 47.8613 155.46 48.552C155.983 49.224 156.244 50.0453 156.244 51.016C156.244 52.416 155.843 53.592 155.04 54.544C154.237 55.4773 153.117 56.1213 151.68 56.476C151.008 56.644 150.317 56.7467 149.608 56.784C148.917 56.84 148.255 56.8493 147.62 56.812C146.985 56.756 146.397 56.672 145.856 56.56C145.333 56.4667 144.923 56.3453 144.624 56.196C144.232 56.0467 143.971 55.8133 143.84 55.496C143.709 55.16 143.672 54.852 143.728 54.572C143.784 54.2733 143.933 54.0493 144.176 53.9C144.419 53.732 144.736 53.7227 145.128 53.872C145.52 54.0587 146.015 54.236 146.612 54.404C147.209 54.5533 147.825 54.656 148.46 54.712C149.095 54.768 149.72 54.7493 150.336 54.656C150.971 54.5627 151.521 54.3387 151.988 53.984C152.305 53.76 152.595 53.424 152.856 52.976C153.117 52.5093 153.248 51.9773 153.248 51.38C153.248 50.8013 153.043 50.3067 152.632 49.896C152.24 49.4667 151.736 49.0653 151.12 48.692C150.485 48.3187 149.767 47.936 148.964 47.544C148.161 47.1333 147.359 46.6387 146.556 46.06C145.753 45.5 145.1 44.884 144.596 44.212C144.092 43.5213 143.84 42.616 143.84 41.496C143.84 39.7787 144.456 38.5 145.688 37.66C146.92 36.82 148.488 36.4 150.392 36.4C150.859 36.4 151.307 36.428 151.736 36.484C152.184 36.5213 152.595 36.5773 152.968 36.652C153.36 36.7267 153.724 36.8107 154.06 36.904C154.396 36.9787 154.704 37.044 154.984 37.1Z" fill="#D20000"/>
</svg>
